{"title":"Shimana Periye - Across The Fring(1977) - dvd rip","uid":7729129,"size":1278820237,"categoryP":"video","categoryS":"movies","magnet":"?xt=urn:btih:7bd33486f1a8a656e05fe035daeb9314961b8156&amp;dn=Shimana+Periye+-+Across+The+Fring%281977%29+-+dvd+rip&amp;tr=udp%3A%2F%2Ftracker.openbittorrent.com%3A80&amp;tr=udp%3A%2F%2Fopen.demonii.com%3A1337&amp;tr=udp%3A%2F%2Ftracker.coppersurfer.tk%3A6969&amp;tr=udp%3A%2F%2Fexodus.desync.com%3A6969","seeders":0,"leechers":0,"uploader":"flyzbd","files":-1,"time":1350290772,"description":"General\nComplete name : Shimana Perye (1977).avi\nFormat : AVI\nFormat/Info  : Audio Video Interleave\nFormat profile : OpenDML\nFile size  : 1.19 GiB\nDuration : 1h 57mn\nOverall bit rate  : 1 452 Kbps\nWriting application : Lavf51.12.1\n\nVideo\nID : 0\nFormat : AVC\nFormat/Info : Advanced Video Codec\nFormat profile : &lt;a class=&quot;__cf_email__&quot; href=&quot;/cdn-cgi/l/email-protection&quot; data-cfemail=&quot;f4b6958791989d9a91b4b8c6dac5&quot;&gt;[email&amp;#160;protected]&lt;/a&gt;&lt;script cf-hash='f9e31' type=&quot;text/javascript&quot;&gt;\n/* &lt;![CDATA[ */!function(){try{var t=&quot;currentScript&quot;in document?document.currentScript:function(){for(var t=document.getElementsByTagName(&quot;script&quot;),e=t.length;e--;)if(t[e].getAttribute(&quot;cf-hash&quot;))return t[e]}();if(t&amp;&amp;t.previousSibling){var e,r,n,i,c=t.previousSibling,a=c.getAttribute(&quot;data-cfemail&quot;);if(a){for(e=&quot;&quot;,r=parseInt(a.substr(0,2),16),n=2;a.length-n;n+=2)i=parseInt(a.substr(n,2),16)^r,e+=String.fromCharCode(i);e=document.createTextNode(e),c.parentNode.replaceChild(e,c)}}}catch(u){}}();/* ]]&gt; */&lt;/script&gt;\nFormat settings, CABAC : No\nFormat settings, ReFrames : 1 frame\nFormat settings, GOP : M=1, N=12\nCodec ID : H264\nDuration : 1h 57mn\nBit rate : 1 309 Kbps\nWidth : 384 pixels\nHeight  : 288 pixels\nDisplay aspect ratio  : 4:3\nFrame rate mode  : Variable\nFrame rate : 25.000 fps\nColor space  : YUV\nChroma subsampling   : 4:2:0\nBit depth : 8 bits\nScan type : Progressive\nBits/(Pixel*Frame) : 0.474\nStream size : 1.07 GiB (90%)\n\nAudio\nID : 1\nFormat : MPEG Audio\nFormat version : Version 1\nFormat profile : Layer 3\nMode : Joint stereo\nMode extension : MS Stereo\nCodec ID : 55\nCodec ID/Hint   : MP3\nDuration : 1h 57mn\nBit rate mode : Constant\nBit rate  : 128 Kbps\nChannel(s) : 2 channels\nSampling rate : 44.1 KHz\nCompression mode : Lossy\nStream size : 107 MiB (9%)\nAlignment : Aligned on interleaves\nInterleave, duration : 26 ms (0.65 video frame)\nWriting library : LAME3.97\n\nDirected By : Alamgir Kabir\nStar Cast : Bulbul Ahmed , Jayasree Sharker , Mustafa &amp; Others .\nMusic : Bhupen Hajarika\nSingers : Bhupen Hajarika &amp; Abida Sultana\nWritten By : Alamgir Kabir (Based on a True Story) \n\nstoryline\n---------\nA huge hit. Story based on a couple who found themselves in a remote island after their boat sunk in the storm. Directed by Alamgir Kabir, the film narrates a developing relationship between two individuals from different social strata, in the milieu of the 1970 cyclone.","torrent":{"xt":"urn:btih:7bd33486f1a8a656e05fe035daeb9314961b8156","amp;dn":"Shimana+Periye+-+Across+The+Fring%281977%29+-+dvd+rip","amp;tr":["udp%3A%2F%2Ftracker.openbittorrent.com%3A80","udp%3A%2F%2Fopen.demonii.com%3A1337","udp%3A%2F%2Ftracker.coppersurfer.tk%3A6969","udp%3A%2F%2Fexodus.desync.com%3A6969"],"infoHash":"7bd33486f1a8a656e05fe035daeb9314961b8156","infoHashBuffer":{"type":"Buffer","data":[123,211,52,134,241,168,166,86,224,95,224,53,218,235,147,20,150,27,129,86]},"announce":[],"urlList":[]}}